<svg width="394" height="49" viewBox="0 0 394 49" fill="none" xmlns="http://www.w3.org/2000/svg">
    <path fill-rule="evenodd" clip-rule="evenodd"
        d="M0 0H27.2162V10.2703H10.2703V38H27.2162V48.2703H0V0ZM33.3784 0H60.5946V10.2703H43.6487V38H60.5946V48.2703H33.3784V0ZM190 0H66.7568V48.2703H190V0ZM77.027 38V10.2703H179.73V38H77.027ZM205 0H215.27V37.7432H232.216V48.0135H205V0ZM238.378 0.513672V48.2704H248.649V0.513672H238.378ZM255.324 0H381.135V19H393.973V48.2703H255.324V29.2703V19V0ZM265.594 19H370.865V10.2703H265.594V19ZM265.594 29.2703V38H383.703V29.2703H381.135H265.594Z"
        fill="#FFFFFF" />
</svg>